<svg width="16" height="11" viewBox="0 0 16 11" fill="none" xmlns="http://www.w3.org/2000/svg">
<g clip-path="url(#clip0_2004_1453)">
<path fill-rule="evenodd" clip-rule="evenodd" d="M1.54253 4.22839H12.0782L9.99761 2.14774C9.64258 1.79272 9.64258 1.21711 9.99761 0.862092C10.3526 0.507069 10.9282 0.50707 11.2832 0.862092L14.9127 4.49154C15.0906 4.66946 15.1793 4.90276 15.179 5.13594C15.1793 5.36911 15.0906 5.6024 14.9127 5.78031L11.2763 9.41664C10.9213 9.77167 10.3457 9.77167 9.9907 9.41664C9.6357 9.06162 9.6357 8.48602 9.9907 8.13099L12.0752 6.04657H1.54253C1.04045 6.04657 0.633436 5.63955 0.633436 5.13748C0.633436 4.6354 1.04045 4.22839 1.54253 4.22839Z" fill="#292D34"/>
</g>
<defs>
<clipPath id="clip0_2004_1453">
<rect width="14.5455" height="10" fill="white" transform="translate(0.633522 0.5)"/>
</clipPath>
</defs>
</svg>