<svg width="32" height="32" viewBox="0 0 32 32" fill="none" xmlns="http://www.w3.org/2000/svg">
<g clip-path="url(#clip0_2004_1336)">
<path d="M10.8267 12.3867L16 17.56L21.1733 12.3867C21.2968 12.2632 21.4433 12.1653 21.6046 12.0985C21.7659 12.0317 21.9387 11.9973 22.1133 11.9973C22.2879 11.9973 22.4608 12.0317 22.622 12.0985C22.7833 12.1653 22.9299 12.2632 23.0533 12.3867C23.1768 12.5101 23.2747 12.6567 23.3415 12.818C23.4083 12.9792 23.4427 13.1521 23.4427 13.3267C23.4427 13.5012 23.4083 13.6741 23.3415 13.8354C23.2747 13.9967 23.1768 14.1432 23.0533 14.2667L16.9333 20.3867C16.81 20.5103 16.6635 20.6083 16.5022 20.6753C16.3409 20.7422 16.1679 20.7766 15.9933 20.7766C15.8187 20.7766 15.6458 20.7422 15.4845 20.6753C15.3232 20.6083 15.1767 20.5103 15.0533 20.3867L8.93332 14.2667C8.80972 14.1433 8.71165 13.9968 8.64474 13.8355C8.57784 13.6742 8.5434 13.5013 8.5434 13.3267C8.5434 13.1521 8.57784 12.9791 8.64474 12.8178C8.71165 12.6565 8.80972 12.51 8.93332 12.3867C9.45332 11.88 10.3067 11.8667 10.8267 12.3867Z" fill="#242A41"/>
</g>
<defs>
<clipPath id="clip0_2004_1336">
<rect width="32" height="32" fill="white"/>
</clipPath>
</defs>
</svg>
