<svg width="25" height="25" viewBox="0 0 25 25" fill="none" xmlns="http://www.w3.org/2000/svg">
<path d="M22.5281 0.904785H2.12813C1.12813 0.904785 0.328125 1.70478 0.328125 2.60478V23.1048C0.328125 24.0048 1.12813 24.8048 2.12813 24.8048H22.5281C23.5281 24.8048 24.3281 24.0048 24.3281 23.1048V2.60478C24.3281 1.70478 23.5281 0.904785 22.5281 0.904785ZM7.42813 21.3048H3.92812V9.90479H7.42813V21.3048ZM5.72812 8.30478C4.62812 8.30478 3.62813 7.40479 3.62813 6.20479C3.62813 5.00479 4.52812 4.10478 5.72812 4.10478C6.82812 4.10478 7.82812 5.00479 7.82812 6.20479C7.82812 7.40479 6.82812 8.30478 5.72812 8.30478ZM20.8281 21.2048H17.3281V15.6048C17.3281 14.3048 17.3281 12.5048 15.4281 12.5048C13.5281 12.5048 13.3281 14.0048 13.3281 15.4048V21.1048H9.82812V9.90479H13.1281V11.4048H13.2281C13.7281 10.5048 14.9281 9.50479 16.6281 9.50479C20.2281 9.50479 20.9281 11.9048 20.9281 15.0048V21.2048H20.8281Z" fill="white"/>
</svg>
