<svg width="17" height="11" viewBox="0 0 17 11" fill="none" xmlns="http://www.w3.org/2000/svg">
<g clip-path="url(#clip0_2004_1450)">
<path fill-rule="evenodd" clip-rule="evenodd" d="M15.0939 4.49582H3.50454L5.79326 2.20711C6.18378 1.81658 6.18378 1.18342 5.79326 0.792893C5.40273 0.402369 4.76957 0.402369 4.37904 0.792894L0.386643 4.7853C0.190942 4.981 0.0933112 5.23763 0.0937515 5.49413C0.0933205 5.75061 0.190951 6.00723 0.386643 6.20293L4.38661 10.2029C4.77714 10.5934 5.4103 10.5934 5.80083 10.2029C6.19135 9.81237 6.19135 9.17921 5.80083 8.78868L3.50796 6.49582H15.0939C15.6462 6.49582 16.0939 6.0481 16.0939 5.49582C16.0939 4.94354 15.6462 4.49582 15.0939 4.49582Z" fill="#292D34"/>
</g>
<defs>
<clipPath id="clip0_2004_1450">
<rect width="16" height="10" fill="white" transform="translate(0.09375 0.5)"/>
</clipPath>
</defs>
</svg>