<svg width="33" height="33" viewBox="0 0 33 33" fill="none" xmlns="http://www.w3.org/2000/svg">
<path d="M26.7531 14.2914C26.3053 12.0217 25.0833 9.97785 23.2959 8.50903C21.5085 7.04021 19.2666 6.23751 16.9531 6.23804C13.0998 6.23804 9.75313 8.4247 8.08646 11.6247C6.12677 11.8365 4.31447 12.765 2.99778 14.2318C1.68109 15.6986 0.952896 17.6003 0.953125 19.5714C0.953125 23.9847 4.53979 27.5714 8.95312 27.5714H26.2865C29.9665 27.5714 32.9531 24.5847 32.9531 20.9047C32.9531 17.3847 30.2198 14.5314 26.7531 14.2914ZM23.6198 18.238L16.9531 24.9047L10.2865 18.238H14.2865V12.9047H19.6198V18.238H23.6198Z" fill="white"/>
</svg>
