<svg width="1169" height="322" viewBox="0 0 1169 322" fill="none" xmlns="http://www.w3.org/2000/svg">
<g opacity="0.25">
<path d="M-0.333252 198.221C13.5221 198.221 118.823 317.377 258.168 317.377C451.748 317.377 555.975 -116.698 828.614 4.64174C1044.76 100.838 1139.77 111.13 1179.35 44.2286" stroke="#BECED8"/>
<path d="M-0.333252 95.2954C11.9387 104.4 118.823 317.377 258.168 317.377C451.748 317.377 587.644 -69.1935 860.283 52.1459C1076.43 148.342 1110.47 132.903 1179.35 83.8154" stroke="#BECED8"/>
<path d="M-0.333252 261.56C13.5221 261.56 118.823 320.544 258.168 320.544C451.748 320.544 558.236 -187.544 812.779 -31.7783C998.441 81.8358 1108.1 126.965 1179.35 75.8979" stroke="#BECED8"/>
</g>
</svg>
